# xmcd
#
# Track frame offsets:
#	150
#	10772
#	23410
#	40324
#	55285
#	66402
#	75692
#	88735
#	101827
#	118732
#	136165
#	146635
#	165837
#	177862
#
# Disc length: 2558 seconds
#
# Revision: 1
# Processed by: cddbd v1.5.2PL0 Copyright (c) Steve Scherf et al.
# Submitted via: audiograbber 1.83.01
#
DISCID=b309fc0e
DTITLE=Various Artist - Schrammel.Klang.Festival 2009 CD2
DYEAR=2009
DGENRE=Schrammel
TTITLE0=Triovial - Gstanzl
TTITLE1=Franz Horacek - Die kleine Bank im Prater
TTITLE2=Die Schnofler - Harber Tanz
TTITLE3=Kurt Girk - A Liad für d´Roserl
TTITLE4=Herbert Bäuml - Habn´s mi scho amoi dudeln g´hört
TTITLE5=Rudi Koschelu - Pepi, Pepi (d´Josefin)
TTITLE6=Flieger grüß mir die Sonne (Ausschnitt) - Meccadancing
TTITLE7=Steinberg and Havlicek - Ein himmlisches Behagen
TTITLE8=Kollegium Kalksburg - Da Heagod waß
TTITLE9=bratfisch - Ausblick auf Wien
TTITLE10=Roland Sulzer - Im zehnten Hieb
TTITLE11=Walther Soyka and Karl Stirner - Unser Leibmarsch
TTITLE12=Hojsa and Emersberger - Deswegen steh i auf di
TTITLE13=Kurt Obermair and Ursula Slawicek - Noch ein echtes Wienerlied
EXTD=
EXTT0=
EXTT1=
EXTT2=
EXTT3=
EXTT4=
EXTT5=
EXTT6=
EXTT7=
EXTT8=
EXTT9=
EXTT10=
EXTT11=
EXTT12=
EXTT13=
PLAYORDER=
